<?xml version="1.0" encoding="UTF-8"?>
<svg id="a" data-name="Layer 1" xmlns="http://www.w3.org/2000/svg" viewBox="0 0 1000 400">
  <g>
    <path d="M335.62,357.64c-1.29,0-2.5-.22-3.61-.67-1.11-.45-2.08-1.07-2.9-1.88-.82-.81-1.46-1.75-1.92-2.84-.45-1.08-.68-2.27-.68-3.54s.23-2.46.68-3.54c.45-1.08,1.09-2.03,1.92-2.84.82-.81,1.79-1.43,2.9-1.88,1.11-.45,2.31-.67,3.61-.67,1.19,0,2.32.19,3.38.58,1.06.39,1.98.98,2.75,1.77l-.53.56c-.79-.76-1.65-1.3-2.59-1.63-.93-.33-1.93-.49-2.99-.49-1.18,0-2.27.21-3.28.62-1.01.41-1.89.99-2.64,1.73s-1.33,1.6-1.74,2.59c-.41.98-.62,2.06-.62,3.22s.21,2.23.62,3.22c.41.98.99,1.85,1.74,2.59s1.63,1.32,2.64,1.73c1.01.41,2.1.62,3.28.62,1.06,0,2.06-.16,2.99-.49.93-.33,1.8-.88,2.59-1.65l.53.56c-.77.79-1.69,1.38-2.75,1.78-1.06.39-2.19.59-3.38.59Z" fill="#691141"/>
    <path d="M352.62,357.54v-17.66h6.13c1.46,0,2.72.24,3.77.71,1.05.47,1.85,1.14,2.41,2,.56.87.83,1.91.83,3.14s-.28,2.28-.83,3.15c-.56.87-1.36,1.55-2.41,2.02-1.05.47-2.31.71-3.77.71h-5.65l.38-.4v6.33h-.86ZM353.48,351.2l-.38-.38h5.7c1.98,0,3.5-.45,4.55-1.34,1.05-.89,1.58-2.14,1.58-3.76s-.53-2.86-1.58-3.75-2.57-1.32-4.55-1.32h-5.7l.38-.4v10.95ZM365.03,357.54l-4.59-6.41h.98l4.62,6.41h-1.01Z" fill="#691141"/>
    <path d="M374.01,357.54l8.17-17.66h.83l8.17,17.66h-.93l-7.85-17.08h.38l-7.84,17.08h-.93ZM376.84,352.36l.33-.73h10.8l.33.73h-11.45Z" fill="#691141"/>
    <path d="M401.81,357.54h-.86v-17.66h11.58v.78h-10.72v16.88ZM401.66,348.73h9.74v.76h-9.74v-.76Z" fill="#691141"/>
    <path d="M426.66,357.54v-16.88h-6.48v-.78h13.8v.78h-6.48v16.88h-.83Z" fill="#691141"/>
    <path d="M444.49,356.75h11.07v.78h-11.93v-17.66h11.58v.78h-10.72v16.09ZM444.34,348.18h9.74v.78h-9.74v-.78Z" fill="#691141"/>
    <path d="M466.81,357.54v-17.66h6.81c1.88,0,3.52.38,4.92,1.15s2.48,1.81,3.27,3.13c.78,1.32,1.17,2.84,1.17,4.55s-.39,3.23-1.17,4.55c-.78,1.32-1.87,2.36-3.27,3.13s-3.04,1.15-4.92,1.15h-6.81ZM467.67,356.75h5.9c1.73,0,3.24-.34,4.53-1.03,1.29-.69,2.28-1.64,2.98-2.85.7-1.21,1.05-2.6,1.05-4.16s-.35-2.95-1.05-4.16c-.7-1.21-1.69-2.16-2.98-2.85-1.29-.69-2.8-1.03-4.53-1.03h-5.9v16.09Z" fill="#691141"/>
    <path d="M507.55,356.75h11.07v.78h-11.93v-17.66h11.58v.78h-10.72v16.09ZM507.4,348.18h9.74v.78h-9.74v-.78Z" fill="#691141"/>
    <path d="M529.87,357.54v-17.66h.86v16.87h10.34v.78h-11.2Z" fill="#691141"/>
    <path d="M551.74,356.75h11.07v.78h-11.93v-17.66h11.58v.78h-10.72v16.09ZM551.59,348.18h9.74v.78h-9.74v-.78Z" fill="#691141"/>
    <path d="M581.35,357.64c-1.31,0-2.53-.22-3.64-.67-1.12-.45-2.09-1.07-2.93-1.88s-1.48-1.75-1.93-2.84-.68-2.27-.68-3.54.23-2.46.68-3.54,1.1-2.03,1.93-2.84c.83-.81,1.81-1.43,2.93-1.88,1.12-.45,2.33-.67,3.64-.67,1.23,0,2.38.19,3.46.58,1.08.39,1.99.97,2.75,1.74l-.5.58c-.81-.77-1.68-1.32-2.62-1.64-.94-.32-1.96-.48-3.05-.48-1.19,0-2.3.21-3.32.62-1.02.41-1.9.99-2.66,1.73s-1.34,1.6-1.75,2.59c-.41.98-.62,2.06-.62,3.22s.21,2.23.62,3.22c.41.98,1,1.85,1.75,2.59s1.64,1.32,2.66,1.73c1.02.41,2.12.62,3.32.62,1.08,0,2.1-.16,3.06-.49.97-.33,1.83-.87,2.59-1.63l.5.63c-.77.76-1.7,1.32-2.77,1.7s-2.21.57-3.41.57ZM586.73,355.32v-6.48h.81v6.53l-.81-.05Z" fill="#691141"/>
    <path d="M596.77,357.54l8.17-17.66h.83l8.17,17.66h-.93l-7.84-17.08h.38l-7.84,17.08h-.93ZM599.59,352.36l.33-.73h10.8l.33.73h-11.45Z" fill="#691141"/>
    <path d="M623.71,357.54v-17.66h.71l12.97,16.65h-.43v-16.65h.86v17.66h-.71l-12.97-16.65h.43v16.65h-.86Z" fill="#691141"/>
    <path d="M657.91,357.64c-1.3,0-2.5-.22-3.61-.67-1.11-.45-2.08-1.07-2.9-1.88-.82-.81-1.46-1.75-1.92-2.84s-.68-2.27-.68-3.54.23-2.46.68-3.54,1.09-2.03,1.92-2.84c.82-.81,1.79-1.43,2.9-1.88,1.11-.45,2.31-.67,3.61-.67,1.19,0,2.32.19,3.38.58,1.06.39,1.98.98,2.75,1.77l-.53.56c-.79-.76-1.65-1.3-2.58-1.63-.93-.33-1.93-.49-2.99-.49-1.18,0-2.27.21-3.28.62-1.01.41-1.89.99-2.64,1.73-.75.74-1.33,1.6-1.74,2.59-.41.98-.62,2.06-.62,3.22s.21,2.23.62,3.22c.41.98.99,1.85,1.74,2.59.75.74,1.63,1.32,2.64,1.73,1.01.41,2.1.62,3.28.62,1.06,0,2.06-.16,2.99-.49.93-.33,1.79-.88,2.58-1.65l.53.56c-.77.79-1.69,1.38-2.75,1.78-1.06.39-2.19.59-3.38.59Z" fill="#691141"/>
    <path d="M675.77,356.75h11.07v.78h-11.93v-17.66h11.58v.78h-10.72v16.09ZM675.62,348.18h9.74v.78h-9.74v-.78Z" fill="#691141"/>
  </g>
  <g>
    <path d="M220.59,291.06h-5.06v-36.22h-20.19v-1.74h45.49v1.74h-20.24v36.22Z" fill="#691141"/>
    <path d="M294.44,291.06h-5.17v-18.71h-36.27v18.71h-5.17v-37.95h5.17v17.5h36.27v-17.5h5.17v37.95Z" fill="#691141"/>
    <path d="M345.1,291.06h-38.85v-37.95h38.85v1.74h-33.79v15.6h27.89v1.74h-27.89v17.13h33.79v1.74Z" fill="#691141"/>
    <path d="M377.62,291.06h-5.11v-11.49c0-2.85-.47-5.73-1.4-8.65-.93-2.92-2.22-5.61-3.87-8.09-1.65-2.48-3.77-4.5-6.35-6.06-2.58-1.56-5.39-2.35-8.41-2.35-1.27,0-2.32.11-3.16.32v-1.58c1.3-.39,2.99-.58,5.06-.58,3.23,0,6.16.57,8.78,1.71,2.62,1.14,4.8,2.71,6.54,4.69,1.74,1.99,3.15,4.15,4.24,6.48,1.09,2.34,1.91,4.89,2.48,7.67.6-2.64,1.45-5.14,2.56-7.51,1.11-2.37,2.47-4.55,4.09-6.54,1.62-1.99,3.56-3.57,5.82-4.74,2.27-1.18,4.72-1.77,7.35-1.77,1.69,0,3.06.18,4.11.53v1.58c-1.05-.32-2.46-.47-4.22-.47-2.92,0-5.58.84-7.99,2.53-2.41,1.69-4.34,3.82-5.8,6.41-1.46,2.58-2.59,5.23-3.4,7.93-.81,2.71-1.25,5.27-1.32,7.7v12.28Z" fill="#691141"/>
    <path d="M427.7,252.58l26.25,38.48h-5.8l-7.06-10.44h-30.27l-7,10.44h-2.37l26.25-38.48ZM425.89,258.15l-13.87,20.68h27.86l-13.99-20.68Z" fill="#691141"/>
    <path d="M465.13,253.11l-4.01,10.65h-3.27l2.74-10.65h4.53Z" fill="#691141"/>
    <path d="M510.31,254.27v2.16c-4.15-1.37-10.02-2.06-17.61-2.06-10.96,0-16.45,2.35-16.45,7.06,0,1.65.67,2.97,2,3.97,1.34,1,3.07,1.7,5.19,2.1,2.13.4,4.48.76,7.06,1.07,2.58.31,5.16.62,7.72.92,2.56.31,4.91.79,7.04,1.46,2.13.67,3.86,1.75,5.19,3.25,1.33,1.5,2,3.39,2,5.67s-.59,4.05-1.77,5.61c-1.18,1.56-2.79,2.78-4.85,3.64-2.06.86-4.28,1.49-6.67,1.87-2.39.39-5.01.58-7.85.58-3.23,0-6.73-.22-10.49-.66-3.76-.44-6.8-1.01-9.12-1.71v-2.43c5.76,2,12.39,3,19.87,3,2.25,0,4.32-.13,6.22-.39,1.9-.26,3.69-.7,5.38-1.32,1.69-.61,3.01-1.51,3.98-2.69s1.45-2.57,1.45-4.19c0-1.86-.67-3.35-2-4.48-1.34-1.12-3.07-1.92-5.19-2.37-2.13-.46-4.48-.83-7.06-1.11-2.58-.28-5.16-.57-7.72-.85-2.57-.28-4.91-.72-7.04-1.32-2.13-.6-3.86-1.59-5.19-2.98-1.34-1.39-2-3.17-2-5.35,0-6.78,6.71-10.17,20.14-10.17,3.3,0,6.67.16,10.09.47s5.98.72,7.67,1.21Z" fill="#691141"/>
    <path d="M589.8,291.06h-5.17v-18.71h-36.27v18.71h-5.17v-37.95h5.17v17.5h36.27v-17.5h5.17v37.95Z" fill="#691141"/>
    <path d="M655.75,272.19c0,5.9-2.66,10.61-7.99,14.13s-12.12,5.27-20.37,5.27-15-1.75-20.32-5.24-7.99-8.2-7.99-14.1,2.66-10.74,7.99-14.31c5.32-3.57,12.12-5.35,20.37-5.35s14.91,1.78,20.27,5.32c5.36,3.55,8.04,8.31,8.04,14.29ZM650.32,272.14c0-5.52-2.17-9.87-6.51-13.07-4.34-3.2-9.8-4.8-16.37-4.8s-12.12,1.61-16.45,4.82-6.48,7.58-6.48,13.1,2.16,9.81,6.48,12.99c4.32,3.18,9.79,4.77,16.39,4.77,4.29,0,8.15-.69,11.6-2.08,3.44-1.39,6.19-3.44,8.25-6.17,2.06-2.72,3.08-5.91,3.08-9.57Z" fill="#691141"/>
    <path d="M705.4,272.46v-19.35h2.06v19.35c0,3.3-.56,6.21-1.69,8.72-1.13,2.51-2.68,4.51-4.66,5.98-1.99,1.48-4.23,2.58-6.72,3.32s-5.22,1.11-8.17,1.11-5.69-.36-8.22-1.08c-2.53-.72-4.82-1.81-6.88-3.27-2.06-1.46-3.67-3.45-4.85-5.98-1.18-2.53-1.77-5.45-1.77-8.75v-19.4h5.17v19.35c0,2.99.51,5.61,1.53,7.85,1.02,2.25,2.41,4.01,4.17,5.27,1.76,1.27,3.65,2.21,5.69,2.82,2.04.62,4.22.92,6.54.92,1.79,0,3.52-.18,5.19-.55,1.67-.37,3.28-.97,4.82-1.82s2.89-1.9,4.03-3.16c1.14-1.27,2.06-2.86,2.74-4.8.69-1.93,1.03-4.11,1.03-6.54Z" fill="#691141"/>
    <path d="M754.69,254.27v2.16c-4.15-1.37-10.02-2.06-17.61-2.06-10.96,0-16.45,2.35-16.45,7.06,0,1.65.67,2.97,2,3.97,1.34,1,3.07,1.7,5.19,2.1,2.13.4,4.48.76,7.06,1.07,2.58.31,5.16.62,7.72.92,2.56.31,4.91.79,7.04,1.46,2.13.67,3.86,1.75,5.19,3.25,1.33,1.5,2,3.39,2,5.67s-.59,4.05-1.77,5.61c-1.18,1.56-2.79,2.78-4.85,3.64-2.06.86-4.28,1.49-6.67,1.87-2.39.39-5.01.58-7.85.58-3.23,0-6.73-.22-10.49-.66-3.76-.44-6.8-1.01-9.12-1.71v-2.43c5.76,2,12.39,3,19.87,3,2.25,0,4.32-.13,6.22-.39,1.9-.26,3.69-.7,5.38-1.32,1.69-.61,3.01-1.51,3.98-2.69s1.45-2.57,1.45-4.19c0-1.86-.67-3.35-2-4.48-1.34-1.12-3.07-1.92-5.19-2.37-2.13-.46-4.48-.83-7.06-1.11-2.58-.28-5.16-.57-7.72-.85-2.57-.28-4.91-.72-7.04-1.32-2.13-.6-3.86-1.59-5.19-2.98-1.34-1.39-2-3.17-2-5.35,0-6.78,6.71-10.17,20.14-10.17,3.3,0,6.67.16,10.09.47s5.98.72,7.67,1.21Z" fill="#691141"/>
    <path d="M804.67,291.06h-38.85v-37.95h38.85v1.74h-33.79v15.6h27.89v1.74h-27.89v17.13h33.79v1.74Z" fill="#691141"/>
  </g>
  <g>
    <polyline points="470.07 191.59 433.87 191.59 433.87 45.23 433.87 45.23 568.71 45.23 568.71 191.59 546.87 191.59 546.87 194.45 571.58 194.45 571.58 42.36 431 42.36 431 194.45 472.93 194.45" fill="#691141" fill-rule="evenodd"/>
    <g>
      <path d="M508.39,194.45v-99.42c1.15.57,2.3,1.13,3.45,1.7v45.1c3.44.91,6.89,1.82,10.33,2.73,3.44.91,6.89,1.82,10.33,2.73v-40.41c1.15.57,2.3,1.13,3.46,1.7v85.86h-3.46v-43.77c-3.44-.85-6.89-1.7-10.33-2.55-3.44-.85-6.89-1.69-10.33-2.53v48.85h-3.45Z" fill="#691141"/>
      <path d="M471.5,69.9c4.59,2.27,9.18,4.53,13.78,6.79,4.59,2.26,9.19,4.52,13.79,6.78v4.28c-2.01-.93-4.02-1.89-6.03-2.84-2.01-.95-4.02-1.89-6.03-2.85v112.4h-3.45v-114.03c-2.01-.96-4.02-1.9-6.03-2.85-2.01-.95-4.02-1.91-6.03-2.86v-4.81h0Z" fill="#691141" fill-rule="evenodd"/>
    </g>
  </g>
</svg>